<?xml version="1.0" encoding="UTF-8"?>
<svg id="Layer_2" data-name="Layer 2" xmlns="http://www.w3.org/2000/svg" viewBox="0 0 1465.03 1320.46">
  <defs>
    <style>
      .cls-1 {
        fill: #0f0f0f;
      }
    </style>
  </defs>
  <g id="Livello_1" data-name="Livello 1">
    <path class="cls-1" d="M1315.93,1320.46c-2.61,0-5.21-1.08-8.19-2.53-2.48-1.21-5.29-2.57-9.16-3.54-8.59-2.15-13.19-4.28-20.16-7.51-4.96-2.3-11.14-5.17-21-9.05-12.27-4.83-19.12-4.96-27.79-5.12-7.22-.13-15.4-.28-28.02-3.27-16.11-3.82-18.32-3.42-20.87-2.97-2.01.36-4.51.8-10.68.21-9.24-.88-20.25-3.27-30.89-5.58-6.83-1.48-13.29-2.89-18.58-3.72-6.14-.97-18.43-.17-31.45.68-14.47.94-29.44,1.92-39.7.77-17.35-1.93-21.59-5.63-28.15-12.55-.85-.89-1.75-1.85-2.77-2.86-8.17-8.17-11.82-14.01-19.1-25.67-6.06-9.69-3.08-16.57-.19-23.23,1.21-2.79,2.46-5.67,3.25-9.06,1.62-6.87-16.99-29.99-31.04-44.05-1.29-1.23-9.35-5.33-16.58-8.42-1.34-.57-1.98-.45-6.91,1.34-3.48,1.26-8.74,3.16-16.9,5.28-16.47,4.27-17.15,4.67-28.62,11.44-1.56.92-3.31,1.95-5.32,3.12-12.09,7.05-19.87,8.7-25.56,9.9-2.52.53-4.51.95-6.22,1.71-5.46,2.42-11.63,3.83-20.17,5.78-2.15.49-4.45,1.01-6.93,1.6-8.26,1.94-14.05,5.7-18.27,8.44-1.65,1.07-3.07,1.99-4.39,2.66-3.8,1.9-9.89,1.72-19.97,1.41-4.3-.13-9.16-.28-14.63-.28-13.21,0-17.14-2-24.1-6.15-2.09-1.25-4.46-2.66-7.64-4.25-13.41-6.7-18.02-9.88-30.83-21.28-12.29-10.92-14.88-12.28-29.24-19.8l-.63-.33c-10.33-5.41-14.07-11.13-17.68-16.66-2.03-3.1-4.12-6.31-7.54-9.73-9.18-9.18-14.65-12.46-28.94-13.83-16.16-1.54-61.16-19.77-71.21-32.13-6.8-8.36-7.46-12.41-8.79-20.46-.67-4.08-1.51-9.17-3.4-16.76-3.15-12.61-4.54-16.83-5.76-20.56-.98-2.99-1.91-5.82-3.52-12.25-1.99-7.98-5.32-10.88-11.94-16.67-3.79-3.32-8.51-7.44-14.24-13.69-10.83-11.81-11.81-13.5-14.19-17.57-1.1-1.88-2.46-4.22-5.43-8.55-5.41-7.91-9.1-12.11-12.36-15.82-2.28-2.59-4.43-5.04-6.83-8.34-5.65-7.77-16.92-21.12-26.65-30.54-6.47-6.26-11.46-7.6-18.38-9.45-2.77-.74-5.9-1.58-9.41-2.82-7.61-2.68-12.04-7.17-15.95-11.13-2.89-2.93-5.62-5.69-9.47-7.61-3.28-1.64-4.61-1-10.21,9.01-1.55,2.76-3.3,5.9-5.39,8.94-9.14,13.3-19.11,16.85-34.41,12.26-10.65-3.19-17.05-11.29-23.82-19.86-3.42-4.33-6.97-8.82-11.39-13.24-11.51-11.51-10.66-21-9.98-28.62.21-2.36.41-4.58.26-6.74-.21-2.93-1.2-8.55-2.35-15.07-2.73-15.5-6.12-34.79-3.98-43.91,2.21-9.41,5.67-12.22,10.04-15.77,2.08-1.69,4.43-3.6,7.33-6.72.5-.54,1.09-1.31,1.04-1.9-.17-2.08-4.99-5.83-9.24-9.14-5.73-4.46-12.86-10.01-17.88-17.55-8.51-12.76-10.59-13.84-19.35-18.4-2.28-1.18-5.11-2.66-8.53-4.59-5.39-3.05-7.4-3.74-8.1-3.9-2.34,1.43-4.86,2.05-10.17.73-7.6-1.9-11.19-5.04-14.99-8.36-2.55-2.23-5.19-4.54-9.6-7.01-4.08-2.28-7.81-3.89-12.12-5.74-7.43-3.2-15.85-6.82-28.68-15.07-7.63-4.9-10.85-8.5-11.11-12.4-.27-3.9,2.53-6.29,4.58-8.04,1.96-1.68,2.64-2.42,2.57-3.28-.52-6.25-6.24-10.93-15.94-16.9-7.96-4.9-17.49-24.22-26.56-43.59-1.38-2.95-2.58-5.5-3.45-7.25-1.66-3.32-3.13-5.61-4.69-8.02-2.91-4.52-5.93-9.2-9.78-20.27-4.26-12.24-2.81-16.78-.11-22.32.82-1.69,1.6-3.29,2.13-5.58,1.34-5.79,4.75-11.13,8.37-16.79,2.87-4.49,5.84-9.13,8.28-14.61,5-11.24,10.47-12.6,20.4-15.06,3.37-.84,7.56-1.88,12.7-3.53,3.44-1.1,5.69-3.03,6.89-5.89,3-7.14-.8-19.41-4.97-27.75-2.89-5.79-3.18-12.23,4.32-26.48.76-1.44,1.42-2.67,1.99-3.74.68-1.27,1.3-2.44,1.76-3.35-.61-.39-1.32-.9-2.1-1.56-1.38-1.13-8.58-2.64-13.84-3.74-10.83-2.27-24.31-5.1-32.9-10.98-13.92-9.52-17.1-13.32-24.67-25.43-5.15-8.24-6.11-11.3-7.84-16.86-.75-2.39-1.68-5.37-3.22-9.55-2.44-6.63-5.74-10.54-9.24-14.67-3.12-3.69-6.34-7.5-8.56-13.04-3.4-8.5-2.78-14.31-2.17-19.92.24-2.18.46-4.25.46-6.53,0-2.56-3.24-9.81-6.11-16.2-5.43-12.13-12.19-27.23-11.72-38.89.23-5.8-.67-7.36-.96-7.7-.36-.43-1.44-.61-3.17-.85-2.73-.38-6.47-.91-10.1-3.88-7.54-6.17-13.81-11.06-23.45-18.47-1.07-.83-4.35-3.34-4.31-7.34.04-4.52,4.15-7.57,8.91-11.09,3.7-2.74,7.88-5.84,11.07-10,7.77-10.16,7.04-11.48,3.96-17.03-3.87-6.96-7.08-19.25-5.43-28.34.14-4.15-12.91-21.91-18.48-29.49C2.18,72.86.59,70.55.21,68.66c-1.2-6,2.7-13.05,11.91-21.56,5.89-5.43,10.82-7.27,13.77-8.37.22-.08.46-.17.68-.26.2-4.35,1.11-12.82,2.87-23.34C31.94.12,41.84,1.43,51.41,2.7c1.42.19,2.93.39,4.53.57,11.26,1.25,17.64,8.89,26.48,19.46,2.77,3.31,5.91,7.07,9.56,11.07,9.29,10.18,10.38,10.78,15.61,13.69,3.13,1.74,7.41,4.13,15.04,9.22,20.04,13.36,23.71,14.43,34.59,17.62l1.41.42c10.15,2.99,17.41,1.64,30.58-.8,1.27-.23,2.59-.48,3.96-.73,8.7-1.58,10.8-3.2,13.99-5.64,2.2-1.69,4.93-3.79,9.99-6.17,6.57-3.09,8.47-4.68,12.24-7.85,2.76-2.31,6.53-5.47,13.57-10.37,7.9-5.5,11.61-9.57,15.2-13.51,3.62-3.97,7.36-8.08,14.87-12.96,12.26-7.97,12.66-8.2,21.28-12.24,1.37-.64,2.96-1.39,4.86-2.29,12.02-5.7,16.58.81,20.6,6.54,1.96,2.79,3.98,5.68,7.15,8.22,5.19,4.16,8.05,8.63,8.49,13.29.41,4.35-1.26,8.65-5.1,13.13-1.07,1.25-1.97,2.09-2.62,2.68.2.6.49,1.39.79,2.2l.41,1.13c.92,2.52.94,2.53,2.35,3.2,2.13,1.01,5.34,2.53,10.99,8.18,5.2,5.19,5.12,9.42,4.15,12.05-2.68,7.23-14.72,9.21-21.65,9.74-5.7.44-7.72,2.06-7.72,10.28,0,4.26,3.85,7.42,13.35,14.78,3.38,2.62,7.21,5.59,11.6,9.25,8.41,7.01,9.69,6.96,11.46,6.9,3.2-.11,6.75.11,14.81,3.98,11.45,5.49,13.71,8.45,12.12,15.83-.51,2.35-1.08,5.02.03,9.68,1.98,8.32,1.89,12.54,1.79,17-.09,3.9-.18,8.33,1.13,16.84,1.59,10.35,4.13,11.97,9.7,15.52,3.23,2.06,7.25,4.62,12,9.37,9.19,9.19,15.08,9.71,21.89,10.32,1.89.17,3.84.34,5.92.7,29.16,4.98,49.96,31.75,58.85,43.18.51.65.98,1.25,1.4,1.8,5.75,7.32,12.45,10.46,27.12,17.35,3.56,1.67,7.59,3.56,12.14,5.77,16.54,8.02,27.5,9.84,41.38,12.15,5.44.9,11.06,1.84,17.62,3.23,4.76,1.01,8.6,1.89,11.68,2.6,12.36,2.83,14.93,3.42,31.45,2.32,15.71-1.05,19.32-2.45,27.22-5.52,2.62-1.02,5.58-2.17,9.54-3.54,3.91-1.36,6.85-2.36,9.43-3.23,8.15-2.76,12.64-4.28,33.22-12.41,18.54-7.32,23.53-7.26,28.38-7.2,2.23.03,4.16.05,7.84-.82,1.62-.38,2.66-.97,3.09-1.74,1.26-2.3-.74-8.07-2.36-12.71-.8-2.3-1.63-4.69-2.25-7.02-1.26-4.73-.72-9.16,1.55-12.81,2.9-4.66,8.02-7.13,11.52-7.83,1.96-.39,6.13-.56,12.77-.79,4.38-.15,9.81-.34,11.4-.62,4.5-1.45,31.43-18.46,33.47-23.09,2.31-6.93,4.11-10.42,13.9-19.46,5.87-5.42,8.95-7.17,14.55-10.34,3.67-2.08,8.7-4.93,16.67-10.06,12.31-7.91,16.69-8.94,21.31-4.98.8.69,1.07.92,2.66.79,2.04-.16,4.07-.35,6.23-.55,7.58-.71,17.02-1.6,33.31-1.6,6,0,8.43-.53,9.33-.84-.02-.17-.04-.35-.06-.5-.22-1.87-.59-5.01,1.95-7.97,5.07-5.92,11.09-7.64,17.86-9.15,3.75-.83,5.74-.99,9.7-1.31,3.17-.25,7.96-.64,16.39-1.61,14.61-1.69,17.29-.51,21.6,4.86.93,1.16,1.98,2.47,3.66,4,4.98,4.53,5.2,9.09,5.38,12.75.16,3.36.27,5.59,3.78,8.55,1.53,1.3,2.42,1.95,2.93,2.29,2.47-1.58,5.75-3.23,13.03-3.23,10.92,0,24.89,13.98,36.12,25.22,4.24,4.24,9.48,9.49,11.39,10.45,3.55,0,3.75-.06,9-1.65,1.51-.46,3.41-1.03,5.85-1.75,9.79-2.88,11.23-3.08,20.6-4.4,2.57-.36,5.75-.81,9.91-1.43,13.42-1.99,17.73-.44,25.46,2.97,3.22,1.42,7.22,3.18,13.36,5,7.88,2.33,11.45,4.56,12.75,7.94,1.34,3.48-.5,6.47-1.97,8.88-1.14,1.85-2.21,3.61-2.21,5.57,0,3.12.37,3.33,4.9,5.94,3.48,2,8.25,4.75,14.46,10.34,2.18,1.97,3.72,3.24,4.77,4.06.24-.2.51-.39.83-.56,1.01-.54,2.68-.94,4.92.18,2.21,1.1,4.99,4.54,15.03,17.63,7.81,10.18,24.05,31.37,28.59,32.77,5.71,1.76,8.59,1.01,16.29-1,2.88-.75,6.46-1.68,10.93-2.65,15.43-3.35,21.35,4.98,25.26,10.5.94,1.33,1.83,2.58,2.67,3.42,4.82,4.82,5.03,9.31,5.47,19.15.14,3.16.32,7.08.68,11.91.99,13.43.24,16.67-1.78,25.31-.98,4.22-2.33,10-3.98,19.2-3.18,17.71-1.2,20.12.4,22.06,1.08,1.31,2.56,3.11,3.17,6.47,1.28,7.03-.19,15.69-4.5,26.45-1.26,3.15-1.93,6.79-2.52,10-.75,4.06-1.34,7.27-2.98,9.46-.37.49-1.5,2.21-2.81,4.2-5.89,8.94-18.16,27.53-27.52,36.89q-10.5,10.5-17.4,20.29l-1.42,2.01c-4.98,7.05-4.93,7.62-4.54,12.07.22,2.52.52,5.97.28,11.48-.41,9.44.54,9.99,6.75,13.56,2.7,1.56,6.05,3.49,10.2,6.6,10.57,7.93,12.02,10.09,14.58,14.64.82,1.47,1.76,3.13,3.43,5.55,6.03,8.72,1.85,15.47-2.19,22-1.58,2.56-3.22,5.2-4.57,8.28-2.43,5.55-4.37,8.98-6.24,12.3-2.06,3.65-4.01,7.09-6.56,13.3-1.37,3.33-1.06,4.19-.98,4.33.39.72,2.37,1.83,4.29,2.91,3.46,1.95,8.2,4.63,13.58,9.73,10,9.47,8,40.25,4.59,76.49-.84,8.9-1.78,18.99-1.34,20.97,1.04,3.82,6.01,5.26,18.14,8.43,3.29.86,7.03,1.83,11.19,3.02,9.03,2.58,10.51,1.94,12.24,1.21,3.21-1.37,6.67-2.36,16.62-.58,15.95,2.85,18.48,8.01,21.27,16.21.86,2.52,1.83,5.37,3.63,8.62,6.51,11.71,1.94,19.82-2.48,27.67-1.3,2.31-2.65,4.71-3.77,7.26-4.12,9.42-11.97,15.98-19.56,22.33-2.37,1.99-4.83,4.04-7.07,6.11-7.13,6.58-9.99,9.76-17.66,18.26-2.15,2.39-4.68,5.19-7.78,8.6-14.23,15.66-16.96,20.44-18.24,31.99-.37,3.32-.36,5.39.04,6.14.3.58,1.67,1.34,3.41,2.3,2.42,1.34,5.73,3.17,10.02,6.51,12.66,9.85,20.44,38.96,21.89,44.79,4.15,4.79,13.44,15.46,15.58,17.6,1.05,1.05,2.01,2.34,3.34,4.13,2.79,3.75,7.46,10.01,17.27,19.34,10.27,9.76,16.15,12.06,22.95,14.73,2.3.9,4.69,1.84,7.37,3.09,10.9,5.09,36.55,28.86,36.55,45,0,11,.91,13.8,4.31,24.22.57,1.76,1.21,3.72,1.92,5.96,3.23,10.14,4.32,10.89,8.39,13.7,1.76,1.21,3.94,2.71,6.8,5.16,5.08,4.35,8.47,5.86,11.2,7.08,2.53,1.12,4.92,2.19,7.11,4.82,4.59,5.51-.01,14.94-4.46,24.07-.77,1.58-1.5,3.06-2.1,4.4-3.75,8.25-13.06,16.21-24.89,21.28-9.8,4.2-19.2-.02-25.41-2.82-.89-.4-1.73-.78-2.48-1.09-5.24,2.29-22.97,21.73-30.68,30.18-4.94,5.42-8.51,9.33-10.27,10.87-4.37,3.83-11.47,20.29-17.18,33.52-.83,1.93-1.66,3.85-2.48,5.72-2.83,6.52-4.01,12.39-5.15,18.06-1.67,8.35-3.26,16.24-9.57,24.8-4.95,6.72-8.74,9-12.52,9ZM1081.18,209.49h0,0ZM16.75,177.62h0s0,0,0,0Z"/>
  </g>
</svg>